<svg xmlns="http://www.w3.org/2000/svg" xmlns:xlink="http://www.w3.org/1999/xlink" width="851" zoomAndPan="magnify" viewBox="0 0 638.25 236.249991" height="315" preserveAspectRatio="xMidYMid meet" version="1.2"><defs><clipPath id="cafc3e78cd"><path d="M 0.636719 0 L 636.867188 0 L 636.867188 235.503906 L 0.636719 235.503906 Z M 0.636719 0 "/></clipPath></defs><g id="97621041f7"><g clip-rule="nonzero" clip-path="url(#cafc3e78cd)"><path style=" stroke:none;fill-rule:nonzero;fill:#ffffff;fill-opacity:1;" d="M 0.636719 0 L 636.867188 0 L 636.867188 235.503906 L 0.636719 235.503906 Z M 0.636719 0 "/><path style=" stroke:none;fill-rule:nonzero;fill:#ecedda;fill-opacity:1;" d="M 0.636719 0 L 636.867188 0 L 636.867188 235.503906 L 0.636719 235.503906 Z M 0.636719 0 "/></g><g style="fill:#324b3e;fill-opacity:1;"><g transform="translate(195.163665, 149.231131)"><path style="stroke:none" d="M 14.15625 -52.703125 L 13.65625 -31.5 C 13.65625 -31.332031 13.640625 -30.8125 13.609375 -29.9375 C 13.554688 -25.101562 13.53125 -20.238281 13.53125 -15.34375 L 13.53125 -13.53125 C 13.53125 -10.5625 13.628906 -8.582031 13.828125 -7.59375 C 14.023438 -6.601562 14.363281 -5.953125 14.84375 -5.640625 C 15.289062 -5.390625 16.023438 -5.09375 17.046875 -4.75 C 18.828125 -4.1875 19.71875 -3.492188 19.71875 -2.671875 C 19.71875 -1.648438 19.015625 -0.90625 17.609375 -0.4375 C 16.210938 0.0195312 13.960938 0.25 10.859375 0.25 C 7.429688 0.25 5.007812 0.0234375 3.59375 -0.421875 C 2.1875 -0.878906 1.484375 -1.628906 1.484375 -2.671875 C 1.484375 -3.515625 2.695312 -4.332031 5.125 -5.125 L 5.390625 -5.21875 C 6.066406 -5.445312 6.550781 -5.769531 6.84375 -6.1875 C 7.144531 -6.613281 7.378906 -7.445312 7.546875 -8.6875 C 8.648438 -18.582031 9.203125 -32.125 9.203125 -49.3125 L 9.203125 -51.046875 C 9.203125 -53.515625 9.113281 -55.175781 8.9375 -56.03125 C 8.769531 -56.894531 8.476562 -57.46875 8.0625 -57.75 C 7.6875 -58.007812 6.8125 -58.378906 5.4375 -58.859375 C 4.070312 -59.335938 3.390625 -59.988281 3.390625 -60.8125 C 3.390625 -61.769531 4.066406 -62.46875 5.421875 -62.90625 C 6.785156 -63.34375 9.0625 -63.5625 12.25 -63.5625 C 13.914062 -63.5625 15.164062 -63.5 16 -63.375 C 16.84375 -63.25 17.40625 -63.054688 17.6875 -62.796875 C 18.394531 -62.203125 19.441406 -59.828125 20.828125 -55.671875 C 21.304688 -54.265625 21.6875 -53.164062 21.96875 -52.375 C 25.8125 -41.488281 29.203125 -32.492188 32.140625 -25.390625 C 35.078125 -18.296875 36.84375 -14.75 37.4375 -14.75 C 38.007812 -14.75 39.691406 -17.953125 42.484375 -24.359375 C 45.285156 -30.765625 48.632812 -39.113281 52.53125 -49.40625 C 53.039062 -50.789062 53.707031 -52.625 54.53125 -54.90625 C 55.769531 -58.382812 56.632812 -60.535156 57.125 -61.359375 C 57.601562 -62.148438 58.320312 -62.710938 59.28125 -63.046875 C 60.238281 -63.390625 61.550781 -63.5625 63.21875 -63.5625 C 66.863281 -63.5625 69.378906 -63.351562 70.765625 -62.9375 C 72.148438 -62.53125 72.84375 -61.820312 72.84375 -60.8125 C 72.84375 -59.988281 72.148438 -59.335938 70.765625 -58.859375 C 69.378906 -58.378906 68.488281 -58.007812 68.09375 -57.75 C 67.59375 -57.4375 67.25 -56.664062 67.0625 -55.4375 C 66.875 -54.207031 66.78125 -51.671875 66.78125 -47.828125 L 66.78125 -43.25 C 66.78125 -33.582031 66.90625 -25.40625 67.15625 -18.71875 C 67.414062 -12.03125 67.726562 -8.082031 68.09375 -6.875 C 68.320312 -6.164062 69.171875 -5.597656 70.640625 -5.171875 C 71.035156 -5.054688 71.363281 -4.957031 71.625 -4.875 C 72.414062 -4.59375 72.976562 -4.289062 73.3125 -3.96875 C 73.65625 -3.644531 73.828125 -3.253906 73.828125 -2.796875 C 73.828125 -1.753906 72.914062 -0.96875 71.09375 -0.4375 C 69.269531 0.0820312 66.5625 0.34375 62.96875 0.34375 C 59.800781 0.34375 57.472656 0.109375 55.984375 -0.359375 C 54.503906 -0.828125 53.765625 -1.539062 53.765625 -2.5 C 53.765625 -3.375 54.613281 -4.109375 56.3125 -4.703125 C 56.875 -4.898438 57.328125 -5.070312 57.671875 -5.21875 C 58.492188 -5.53125 59.054688 -6.210938 59.359375 -7.265625 C 59.671875 -8.328125 59.828125 -10.484375 59.828125 -13.734375 L 59.828125 -20.0625 C 59.828125 -23.3125 59.820312 -25.71875 59.8125 -27.28125 C 59.800781 -28.851562 59.78125 -30.304688 59.75 -31.640625 L 59.40625 -54.109375 C 53.269531 -38.472656 49.054688 -27.789062 46.765625 -22.0625 C 44.484375 -16.34375 42.648438 -11.828125 41.265625 -8.515625 C 41.066406 -8.035156 40.78125 -7.359375 40.40625 -6.484375 C 38.90625 -2.804688 37.535156 -0.96875 36.296875 -0.96875 C 34.578125 -0.96875 29.769531 -11.457031 21.875 -32.4375 C 18.6875 -40.894531 16.113281 -47.648438 14.15625 -52.703125 Z M 14.15625 -52.703125 "/></g></g><g style="fill:#324b3e;fill-opacity:1;"><g transform="translate(267.347072, 149.231131)"><path style="stroke:none" d="M 9.703125 0 C 7.109375 0 5.273438 -0.203125 4.203125 -0.609375 C 3.128906 -1.023438 2.59375 -1.710938 2.59375 -2.671875 C 2.59375 -3.492188 3.40625 -4.171875 5.03125 -4.703125 C 6.65625 -5.242188 7.578125 -5.671875 7.796875 -5.984375 C 8.253906 -6.546875 8.570312 -8.609375 8.75 -12.171875 C 8.9375 -15.734375 9.03125 -22.25 9.03125 -31.71875 C 9.03125 -41.101562 8.9375 -47.5625 8.75 -51.09375 C 8.570312 -54.625 8.253906 -56.675781 7.796875 -57.25 C 7.578125 -57.5625 6.65625 -57.984375 5.03125 -58.515625 C 3.40625 -59.054688 2.59375 -59.722656 2.59375 -60.515625 C 2.59375 -61.503906 3.140625 -62.21875 4.234375 -62.65625 C 5.335938 -63.09375 7.160156 -63.3125 9.703125 -63.3125 L 39.1875 -63.3125 C 40.59375 -63.3125 42.023438 -63.453125 43.484375 -63.734375 C 44.941406 -64.015625 45.695312 -64.15625 45.75 -64.15625 C 46.914062 -64.15625 47.828125 -63.300781 48.484375 -61.59375 C 49.148438 -59.882812 49.484375 -57.53125 49.484375 -54.53125 C 49.484375 -53.394531 49.289062 -52.515625 48.90625 -51.890625 C 48.53125 -51.273438 47.972656 -50.96875 47.234375 -50.96875 C 46.503906 -50.96875 45.6875 -51.773438 44.78125 -53.390625 C 44.5 -53.898438 44.269531 -54.28125 44.09375 -54.53125 C 43.25 -55.945312 42.269531 -56.90625 41.15625 -57.40625 C 40.039062 -57.914062 38.335938 -58.171875 36.046875 -58.171875 L 24.84375 -58.171875 C 22.164062 -58.171875 20.296875 -58.050781 19.234375 -57.8125 C 18.171875 -57.570312 17.523438 -57.144531 17.296875 -56.53125 C 16.929688 -55.644531 16.675781 -53.9375 16.53125 -51.40625 C 16.394531 -48.882812 16.328125 -44.835938 16.328125 -39.265625 L 16.328125 -38.546875 C 16.328125 -37.191406 16.4375 -36.378906 16.65625 -36.109375 C 16.882812 -35.835938 17.4375 -35.703125 18.3125 -35.703125 L 29.765625 -35.703125 C 31.710938 -35.703125 33.085938 -36.007812 33.890625 -36.625 C 34.703125 -37.25 35.222656 -38.425781 35.453125 -40.15625 C 35.484375 -40.351562 35.523438 -40.648438 35.578125 -41.046875 C 35.921875 -43.671875 36.710938 -44.984375 37.953125 -44.984375 C 39.054688 -44.984375 39.8125 -44.253906 40.21875 -42.796875 C 40.625 -41.347656 40.828125 -38.132812 40.828125 -33.15625 C 40.828125 -28.207031 40.625 -25.019531 40.21875 -23.59375 C 39.8125 -22.164062 39.054688 -21.453125 37.953125 -21.453125 C 36.710938 -21.453125 35.921875 -22.753906 35.578125 -25.359375 C 35.523438 -25.785156 35.484375 -26.097656 35.453125 -26.296875 C 35.222656 -28.015625 34.703125 -29.1875 33.890625 -29.8125 C 33.085938 -30.4375 31.710938 -30.75 29.765625 -30.75 L 18.3125 -30.75 C 17.5 -30.75 16.945312 -30.523438 16.65625 -30.078125 C 16.375 -29.640625 16.234375 -28.726562 16.234375 -27.34375 C 16.234375 -27.007812 16.25 -26.226562 16.28125 -25 C 16.3125 -23.769531 16.328125 -22.703125 16.328125 -21.796875 C 16.328125 -17.671875 16.410156 -14.488281 16.578125 -12.25 C 16.742188 -10.019531 17.015625 -8.476562 17.390625 -7.625 C 17.753906 -6.695312 18.660156 -6.035156 20.109375 -5.640625 C 21.566406 -5.242188 23.925781 -5.046875 27.1875 -5.046875 L 34.984375 -5.046875 C 38.085938 -5.046875 40.429688 -5.441406 42.015625 -6.234375 C 43.597656 -7.023438 44.957031 -8.4375 46.09375 -10.46875 C 46.539062 -11.289062 47.019531 -12.394531 47.53125 -13.78125 C 48.238281 -15.757812 49.046875 -16.75 49.953125 -16.75 C 50.628906 -16.75 51.171875 -16.378906 51.578125 -15.640625 C 51.992188 -14.910156 52.203125 -13.921875 52.203125 -12.671875 C 52.203125 -9.253906 51.617188 -6.109375 50.453125 -3.234375 C 49.296875 -0.367188 48.113281 1.0625 46.90625 1.0625 C 46.757812 1.0625 46.390625 0.976562 45.796875 0.8125 C 43.847656 0.269531 41.894531 0 39.9375 0 Z M 9.703125 0 "/></g></g><g style="fill:#324b3e;fill-opacity:1;"><g transform="translate(316.929703, 149.231131)"><path style="stroke:none" d="M 13.65625 -52.03125 L 13.65625 -31.71875 C 13.65625 -23.289062 13.753906 -17.039062 13.953125 -12.96875 C 14.148438 -8.90625 14.472656 -6.585938 14.921875 -6.015625 C 15.179688 -5.679688 16.128906 -5.242188 17.765625 -4.703125 C 19.410156 -4.171875 20.234375 -3.492188 20.234375 -2.671875 C 20.234375 -1.648438 19.546875 -0.90625 18.171875 -0.4375 C 16.796875 0.0195312 14.554688 0.25 11.453125 0.25 C 8.316406 0.25 6.039062 0.0195312 4.625 -0.4375 C 3.207031 -0.90625 2.5 -1.648438 2.5 -2.671875 C 2.5 -3.492188 3.328125 -4.171875 4.984375 -4.703125 C 6.640625 -5.242188 7.578125 -5.671875 7.796875 -5.984375 C 8.253906 -6.546875 8.570312 -8.609375 8.75 -12.171875 C 8.9375 -15.734375 9.03125 -22.25 9.03125 -31.71875 C 9.03125 -41.101562 8.9375 -47.5625 8.75 -51.09375 C 8.570312 -54.625 8.253906 -56.675781 7.796875 -57.25 C 7.578125 -57.5625 6.640625 -57.984375 4.984375 -58.515625 C 3.328125 -59.054688 2.5 -59.722656 2.5 -60.515625 C 2.5 -61.503906 3.109375 -62.242188 4.328125 -62.734375 C 5.546875 -63.234375 7.3125 -63.484375 9.625 -63.484375 C 11.4375 -63.484375 12.820312 -63.269531 13.78125 -62.84375 C 14.738281 -62.414062 15.671875 -61.582031 16.578125 -60.34375 C 17.085938 -59.6875 18.09375 -58.34375 19.59375 -56.3125 C 30.84375 -41.050781 42.429688 -26.179688 54.359375 -11.703125 L 54.359375 -31.59375 C 54.359375 -41.707031 54.265625 -48.367188 54.078125 -51.578125 C 53.898438 -54.785156 53.582031 -56.675781 53.125 -57.25 C 52.90625 -57.5625 51.96875 -57.984375 50.3125 -58.515625 C 48.65625 -59.054688 47.828125 -59.722656 47.828125 -60.515625 C 47.828125 -61.554688 48.523438 -62.3125 49.921875 -62.78125 C 51.328125 -63.25 53.582031 -63.484375 56.6875 -63.484375 C 59.832031 -63.484375 62.097656 -63.25 63.484375 -62.78125 C 64.867188 -62.3125 65.5625 -61.554688 65.5625 -60.515625 C 65.5625 -60.140625 65.382812 -59.796875 65.03125 -59.484375 C 64.675781 -59.179688 64.128906 -58.890625 63.390625 -58.609375 C 63.191406 -58.546875 62.910156 -58.457031 62.546875 -58.34375 C 60.992188 -57.863281 60.117188 -57.257812 59.921875 -56.53125 C 59.609375 -55.425781 59.375 -51.351562 59.21875 -44.3125 C 59.0625 -37.269531 58.984375 -27.5625 58.984375 -15.1875 L 58.984375 -3.046875 C 58.984375 -1.359375 58.84375 -0.332031 58.5625 0.03125 C 58.28125 0.40625 57.785156 0.59375 57.078125 0.59375 C 56.117188 0.59375 55.285156 0.382812 54.578125 -0.03125 C 53.867188 -0.457031 52.835938 -1.492188 51.484375 -3.140625 C 48.628906 -6.617188 43.671875 -12.898438 36.609375 -21.984375 C 29.554688 -31.078125 21.90625 -41.09375 13.65625 -52.03125 Z M 13.65625 -52.03125 "/></g></g><g style="fill:#324b3e;fill-opacity:1;"><g transform="translate(380.420503, 149.231131)"><path style="stroke:none" d="M 54.78125 -29.765625 C 54.78125 -23.972656 54.5625 -19.5625 54.125 -16.53125 C 53.6875 -13.507812 52.957031 -10.953125 51.9375 -8.859375 C 50.300781 -5.523438 47.726562 -2.9375 44.21875 -1.09375 C 40.71875 0.738281 36.578125 1.65625 31.796875 1.65625 C 26.679688 1.65625 22.40625 0.820312 18.96875 -0.84375 C 15.539062 -2.507812 12.804688 -5.066406 10.765625 -8.515625 C 9.773438 -10.128906 9.0625 -12.3125 8.625 -15.0625 C 8.1875 -17.820312 7.96875 -21.691406 7.96875 -26.671875 C 7.96875 -28.140625 7.984375 -30.097656 8.015625 -32.546875 C 8.046875 -34.992188 8.0625 -36.710938 8.0625 -37.703125 C 8.0625 -44.710938 7.972656 -49.585938 7.796875 -52.328125 C 7.628906 -55.066406 7.347656 -56.691406 6.953125 -57.203125 C 6.703125 -57.566406 5.753906 -58.007812 4.109375 -58.53125 C 2.472656 -59.0625 1.65625 -59.722656 1.65625 -60.515625 C 1.65625 -61.617188 2.453125 -62.414062 4.046875 -62.90625 C 5.648438 -63.40625 8.203125 -63.65625 11.703125 -63.65625 C 15.234375 -63.65625 17.796875 -63.40625 19.390625 -62.90625 C 20.992188 -62.414062 21.796875 -61.617188 21.796875 -60.515625 C 21.796875 -59.722656 20.988281 -59.054688 19.375 -58.515625 C 17.769531 -57.984375 16.835938 -57.546875 16.578125 -57.203125 C 16.128906 -56.660156 15.769531 -54.171875 15.5 -49.734375 C 15.226562 -45.296875 15.09375 -39.347656 15.09375 -31.890625 C 15.09375 -25.671875 15.359375 -20.785156 15.890625 -17.234375 C 16.429688 -13.691406 17.296875 -11.015625 18.484375 -9.203125 C 19.898438 -7.078125 21.804688 -5.441406 24.203125 -4.296875 C 26.609375 -3.160156 29.394531 -2.59375 32.5625 -2.59375 C 36.207031 -2.59375 39.296875 -3.367188 41.828125 -4.921875 C 44.359375 -6.472656 46.359375 -8.832031 47.828125 -12 C 48.453125 -13.351562 48.910156 -15.769531 49.203125 -19.25 C 49.503906 -22.726562 49.65625 -27.453125 49.65625 -33.421875 L 49.65625 -38.921875 C 49.65625 -46.023438 49.582031 -50.757812 49.4375 -53.125 C 49.300781 -55.5 49.035156 -56.957031 48.640625 -57.5 C 48.378906 -57.8125 47.429688 -58.210938 45.796875 -58.703125 C 44.160156 -59.203125 43.34375 -59.847656 43.34375 -60.640625 C 43.34375 -61.660156 44.054688 -62.414062 45.484375 -62.90625 C 46.910156 -63.40625 49.117188 -63.65625 52.109375 -63.65625 C 55.191406 -63.65625 57.453125 -63.410156 58.890625 -62.921875 C 60.335938 -62.441406 61.0625 -61.679688 61.0625 -60.640625 C 61.0625 -59.847656 60.359375 -59.238281 58.953125 -58.8125 C 57.554688 -58.382812 56.660156 -58.0625 56.265625 -57.84375 C 55.703125 -57.5 55.300781 -56.285156 55.0625 -54.203125 C 54.820312 -52.128906 54.703125 -48.453125 54.703125 -43.171875 C 54.703125 -40.710938 54.710938 -38 54.734375 -35.03125 C 54.765625 -32.0625 54.78125 -30.304688 54.78125 -29.765625 Z M 54.78125 -29.765625 "/></g></g><g style="fill:#324b3e;fill-opacity:1;"><g transform="translate(256.440948, 62.394905)"><path style="stroke:none" d="M 3.671875 0.09375 C 3.109375 0.09375 2.601562 -0.00390625 2.15625 -0.203125 C 1.707031 -0.410156 1.351562 -0.691406 1.09375 -1.046875 C 0.84375 -1.410156 0.710938 -1.828125 0.703125 -2.296875 L 1.90625 -2.296875 C 1.9375 -1.890625 2.097656 -1.546875 2.390625 -1.265625 C 2.679688 -0.992188 3.109375 -0.859375 3.671875 -0.859375 C 4.203125 -0.859375 4.625 -0.992188 4.9375 -1.265625 C 5.25 -1.535156 5.40625 -1.878906 5.40625 -2.296875 C 5.40625 -2.617188 5.3125 -2.882812 5.125 -3.09375 C 4.945312 -3.300781 4.722656 -3.457031 4.453125 -3.5625 C 4.179688 -3.664062 3.816406 -3.78125 3.359375 -3.90625 C 2.785156 -4.050781 2.328125 -4.195312 1.984375 -4.34375 C 1.648438 -4.5 1.359375 -4.734375 1.109375 -5.046875 C 0.867188 -5.359375 0.75 -5.785156 0.75 -6.328125 C 0.75 -6.796875 0.867188 -7.207031 1.109375 -7.5625 C 1.347656 -7.925781 1.679688 -8.207031 2.109375 -8.40625 C 2.546875 -8.601562 3.039062 -8.703125 3.59375 -8.703125 C 4.40625 -8.703125 5.066406 -8.5 5.578125 -8.09375 C 6.085938 -7.695312 6.378906 -7.164062 6.453125 -6.5 L 5.21875 -6.5 C 5.175781 -6.820312 5 -7.109375 4.6875 -7.359375 C 4.382812 -7.609375 3.984375 -7.734375 3.484375 -7.734375 C 3.015625 -7.734375 2.632812 -7.613281 2.34375 -7.375 C 2.050781 -7.132812 1.90625 -6.796875 1.90625 -6.359375 C 1.90625 -6.046875 1.988281 -5.789062 2.15625 -5.59375 C 2.332031 -5.394531 2.550781 -5.242188 2.8125 -5.140625 C 3.070312 -5.046875 3.4375 -4.929688 3.90625 -4.796875 C 4.476562 -4.640625 4.9375 -4.484375 5.28125 -4.328125 C 5.625 -4.179688 5.914062 -3.945312 6.15625 -3.625 C 6.40625 -3.3125 6.53125 -2.882812 6.53125 -2.34375 C 6.53125 -1.925781 6.421875 -1.53125 6.203125 -1.15625 C 5.984375 -0.789062 5.65625 -0.488281 5.21875 -0.25 C 4.78125 -0.0195312 4.265625 0.09375 3.671875 0.09375 Z M 3.671875 0.09375 "/></g></g><g style="fill:#324b3e;fill-opacity:1;"><g transform="translate(264.657128, 62.394905)"><path style="stroke:none" d="M 7.890625 -8.796875 L 7.890625 -7.609375 C 8.296875 -7.660156 8.554688 -7.84375 8.671875 -8.15625 C 8.796875 -8.476562 8.859375 -8.882812 8.859375 -9.375 L 10 -9.375 L 10.078125 -9.234375 C 10.015625 -8.847656 9.90625 -8.488281 9.75 -8.15625 C 9.601562 -7.820312 9.378906 -7.539062 9.078125 -7.3125 C 8.785156 -7.09375 8.390625 -6.9375 7.890625 -6.84375 L 7.890625 -3.109375 C 7.890625 -2.492188 7.773438 -1.941406 7.546875 -1.453125 C 7.316406 -0.972656 6.953125 -0.585938 6.453125 -0.296875 C 5.960938 -0.015625 5.328125 0.125 4.546875 0.125 C 3.421875 0.125 2.566406 -0.171875 1.984375 -0.765625 C 1.398438 -1.367188 1.109375 -2.15625 1.109375 -3.125 L 1.109375 -8.796875 L 2.21875 -8.796875 L 2.21875 -3.078125 C 2.21875 -2.367188 2.410156 -1.816406 2.796875 -1.421875 C 3.191406 -1.035156 3.785156 -0.84375 4.578125 -0.84375 C 5.109375 -0.84375 5.535156 -0.9375 5.859375 -1.125 C 6.179688 -1.320312 6.414062 -1.585938 6.5625 -1.921875 C 6.71875 -2.265625 6.796875 -2.65625 6.796875 -3.09375 L 6.796875 -8.796875 Z M 2.25 -9.65625 C 2.289062 -10.144531 2.425781 -10.53125 2.65625 -10.8125 C 2.894531 -11.09375 3.207031 -11.234375 3.59375 -11.234375 C 3.84375 -11.234375 4.078125 -11.171875 4.296875 -11.046875 C 4.515625 -10.929688 4.722656 -10.816406 4.921875 -10.703125 C 5.117188 -10.585938 5.300781 -10.53125 5.46875 -10.53125 C 5.65625 -10.53125 5.800781 -10.585938 5.90625 -10.703125 C 6.007812 -10.828125 6.09375 -11.007812 6.15625 -11.25 L 6.765625 -11.25 C 6.710938 -10.757812 6.570312 -10.375 6.34375 -10.09375 C 6.113281 -9.8125 5.804688 -9.671875 5.421875 -9.671875 C 5.191406 -9.671875 4.96875 -9.726562 4.75 -9.84375 C 4.53125 -9.957031 4.320312 -10.070312 4.125 -10.1875 C 3.925781 -10.3125 3.734375 -10.375 3.546875 -10.375 C 3.347656 -10.375 3.195312 -10.3125 3.09375 -10.1875 C 3 -10.070312 2.925781 -9.894531 2.875 -9.65625 Z M 2.25 -9.65625 "/></g></g><g style="fill:#324b3e;fill-opacity:1;"><g transform="translate(275.25412, 62.394905)"><path style="stroke:none" d="M 6.03125 -1.90625 L 2.28125 -1.90625 L 1.59375 0 L 0.40625 0 L 3.515625 -8.546875 L 4.8125 -8.546875 L 7.90625 0 L 6.71875 0 Z M 5.703125 -2.828125 L 4.15625 -7.15625 L 2.59375 -2.828125 Z M 5.703125 -2.828125 "/></g></g><g style="fill:#324b3e;fill-opacity:1;"><g transform="translate(284.543519, 62.394905)"><path style="stroke:none" d=""/></g></g><g style="fill:#324b3e;fill-opacity:1;"><g transform="translate(288.812232, 62.394905)"><path style="stroke:none" d="M 0.53125 -4.296875 C 0.53125 -5.140625 0.71875 -5.894531 1.09375 -6.5625 C 1.476562 -7.226562 1.992188 -7.75 2.640625 -8.125 C 3.296875 -8.507812 4.019531 -8.703125 4.8125 -8.703125 C 5.75 -8.703125 6.566406 -8.472656 7.265625 -8.015625 C 7.972656 -7.566406 8.484375 -6.929688 8.796875 -6.109375 L 7.453125 -6.109375 C 7.210938 -6.617188 6.867188 -7.015625 6.421875 -7.296875 C 5.972656 -7.578125 5.4375 -7.71875 4.8125 -7.71875 C 4.21875 -7.71875 3.679688 -7.578125 3.203125 -7.296875 C 2.722656 -7.015625 2.347656 -6.617188 2.078125 -6.109375 C 1.804688 -5.597656 1.671875 -4.992188 1.671875 -4.296875 C 1.671875 -3.617188 1.804688 -3.019531 2.078125 -2.5 C 2.347656 -1.988281 2.722656 -1.59375 3.203125 -1.3125 C 3.679688 -1.039062 4.21875 -0.90625 4.8125 -0.90625 C 5.4375 -0.90625 5.972656 -1.039062 6.421875 -1.3125 C 6.867188 -1.582031 7.210938 -1.976562 7.453125 -2.5 L 8.796875 -2.5 C 8.484375 -1.675781 7.972656 -1.039062 7.265625 -0.59375 C 6.566406 -0.144531 5.75 0.078125 4.8125 0.078125 C 4.019531 0.078125 3.296875 -0.109375 2.640625 -0.484375 C 1.992188 -0.859375 1.476562 -1.378906 1.09375 -2.046875 C 0.71875 -2.710938 0.53125 -3.460938 0.53125 -4.296875 Z M 0.53125 -4.296875 "/></g></g><g style="fill:#324b3e;fill-opacity:1;"><g transform="translate(299.310535, 62.394905)"><path style="stroke:none" d="M 7.5625 -8.59375 L 7.5625 0 L 6.453125 0 L 6.453125 -3.890625 L 2.078125 -3.890625 L 2.078125 0 L 0.953125 0 L 0.953125 -8.59375 L 2.078125 -8.59375 L 2.078125 -4.8125 L 6.453125 -4.8125 L 6.453125 -8.59375 Z M 7.5625 -8.59375 "/></g></g><g style="fill:#324b3e;fill-opacity:1;"><g transform="translate(308.821976, 62.394905)"><path style="stroke:none" d="M 2.046875 -8.59375 L 2.046875 -3.15625 C 2.046875 -2.394531 2.234375 -1.828125 2.609375 -1.453125 C 2.984375 -1.085938 3.503906 -0.90625 4.171875 -0.90625 C 4.828125 -0.90625 5.34375 -1.085938 5.71875 -1.453125 C 6.09375 -1.828125 6.28125 -2.394531 6.28125 -3.15625 L 6.28125 -8.59375 L 7.390625 -8.59375 L 7.390625 -3.171875 C 7.390625 -2.453125 7.242188 -1.847656 6.953125 -1.359375 C 6.671875 -0.867188 6.285156 -0.503906 5.796875 -0.265625 C 5.304688 -0.0234375 4.757812 0.09375 4.15625 0.09375 C 3.550781 0.09375 3.003906 -0.0234375 2.515625 -0.265625 C 2.023438 -0.503906 1.632812 -0.867188 1.34375 -1.359375 C 1.0625 -1.847656 0.921875 -2.453125 0.921875 -3.171875 L 0.921875 -8.59375 Z M 2.046875 -8.59375 "/></g></g><g style="fill:#324b3e;fill-opacity:1;"><g transform="translate(318.123707, 62.394905)"><path style="stroke:none" d="M 6.03125 -1.90625 L 2.28125 -1.90625 L 1.59375 0 L 0.40625 0 L 3.515625 -8.546875 L 4.8125 -8.546875 L 7.90625 0 L 6.71875 0 Z M 5.703125 -2.828125 L 4.15625 -7.15625 L 2.59375 -2.828125 Z M 5.703125 -2.828125 "/></g></g><g style="fill:#324b3e;fill-opacity:1;"><g transform="translate(327.413106, 62.394905)"><path style="stroke:none" d=""/></g></g><g style="fill:#324b3e;fill-opacity:1;"><g transform="translate(331.681819, 62.394905)"><path style="stroke:none" d="M 0.53125 -4.296875 C 0.53125 -5.140625 0.71875 -5.894531 1.09375 -6.5625 C 1.476562 -7.226562 1.992188 -7.75 2.640625 -8.125 C 3.296875 -8.507812 4.019531 -8.703125 4.8125 -8.703125 C 5.75 -8.703125 6.566406 -8.472656 7.265625 -8.015625 C 7.972656 -7.566406 8.484375 -6.929688 8.796875 -6.109375 L 7.453125 -6.109375 C 7.210938 -6.617188 6.867188 -7.015625 6.421875 -7.296875 C 5.972656 -7.578125 5.4375 -7.71875 4.8125 -7.71875 C 4.21875 -7.71875 3.679688 -7.578125 3.203125 -7.296875 C 2.722656 -7.015625 2.347656 -6.617188 2.078125 -6.109375 C 1.804688 -5.597656 1.671875 -4.992188 1.671875 -4.296875 C 1.671875 -3.617188 1.804688 -3.019531 2.078125 -2.5 C 2.347656 -1.988281 2.722656 -1.59375 3.203125 -1.3125 C 3.679688 -1.039062 4.21875 -0.90625 4.8125 -0.90625 C 5.4375 -0.90625 5.972656 -1.039062 6.421875 -1.3125 C 6.867188 -1.582031 7.210938 -1.976562 7.453125 -2.5 L 8.796875 -2.5 C 8.484375 -1.675781 7.972656 -1.039062 7.265625 -0.59375 C 6.566406 -0.144531 5.75 0.078125 4.8125 0.078125 C 4.019531 0.078125 3.296875 -0.109375 2.640625 -0.484375 C 1.992188 -0.859375 1.476562 -1.378906 1.09375 -2.046875 C 0.71875 -2.710938 0.53125 -3.460938 0.53125 -4.296875 Z M 0.53125 -4.296875 "/></g></g><g style="fill:#324b3e;fill-opacity:1;"><g transform="translate(342.180121, 62.394905)"><path style="stroke:none" d="M 4.84375 0.09375 C 4.050781 0.09375 3.320312 -0.09375 2.65625 -0.46875 C 2 -0.84375 1.476562 -1.363281 1.09375 -2.03125 C 0.71875 -2.707031 0.53125 -3.460938 0.53125 -4.296875 C 0.53125 -5.140625 0.71875 -5.894531 1.09375 -6.5625 C 1.476562 -7.226562 2 -7.75 2.65625 -8.125 C 3.320312 -8.5 4.050781 -8.6875 4.84375 -8.6875 C 5.644531 -8.6875 6.375 -8.5 7.03125 -8.125 C 7.695312 -7.75 8.21875 -7.226562 8.59375 -6.5625 C 8.96875 -5.90625 9.15625 -5.148438 9.15625 -4.296875 C 9.15625 -3.453125 8.96875 -2.695312 8.59375 -2.03125 C 8.21875 -1.363281 7.695312 -0.84375 7.03125 -0.46875 C 6.375 -0.09375 5.644531 0.09375 4.84375 0.09375 Z M 4.84375 -0.890625 C 5.445312 -0.890625 5.988281 -1.023438 6.46875 -1.296875 C 6.945312 -1.578125 7.320312 -1.976562 7.59375 -2.5 C 7.875 -3.019531 8.015625 -3.617188 8.015625 -4.296875 C 8.015625 -4.992188 7.875 -5.597656 7.59375 -6.109375 C 7.320312 -6.617188 6.945312 -7.015625 6.46875 -7.296875 C 5.988281 -7.578125 5.445312 -7.71875 4.84375 -7.71875 C 4.238281 -7.71875 3.695312 -7.578125 3.21875 -7.296875 C 2.738281 -7.015625 2.359375 -6.617188 2.078125 -6.109375 C 1.804688 -5.597656 1.671875 -4.992188 1.671875 -4.296875 C 1.671875 -3.617188 1.804688 -3.019531 2.078125 -2.5 C 2.359375 -1.976562 2.738281 -1.578125 3.21875 -1.296875 C 3.695312 -1.023438 4.238281 -0.890625 4.84375 -0.890625 Z M 4.875 -10.1875 L 3.15625 -9.140625 L 3.15625 -10.03125 L 4.875 -11.046875 L 6.578125 -10.03125 L 6.578125 -9.140625 Z M 4.875 -10.1875 "/></g></g><g style="fill:#324b3e;fill-opacity:1;"><g transform="translate(352.851128, 62.394905)"><path style="stroke:none" d=""/></g></g><g style="fill:#324b3e;fill-opacity:1;"><g transform="translate(357.119841, 62.394905)"><path style="stroke:none" d="M 9.671875 -8.53125 L 9.671875 0 L 8.546875 0 L 8.546875 -6.359375 L 5.703125 0 L 4.921875 0 L 2.078125 -6.375 L 2.078125 0 L 0.953125 0 L 0.953125 -8.53125 L 2.15625 -8.53125 L 5.3125 -1.484375 L 8.46875 -8.53125 Z M 9.671875 -8.53125 "/></g></g><g style="fill:#324b3e;fill-opacity:1;"><g transform="translate(368.716037, 62.394905)"><path style="stroke:none" d="M 6.03125 -1.90625 L 2.28125 -1.90625 L 1.59375 0 L 0.40625 0 L 3.515625 -8.546875 L 4.8125 -8.546875 L 7.90625 0 L 6.71875 0 Z M 5.703125 -2.828125 L 4.15625 -7.15625 L 2.59375 -2.828125 Z M 5.703125 -2.828125 "/></g></g><g style="fill:#324b3e;fill-opacity:1;"><g transform="translate(378.005436, 62.394905)"><path style="stroke:none" d="M 2.078125 -8.59375 L 2.078125 0 L 0.953125 0 L 0.953125 -8.59375 Z M 2.078125 -8.59375 "/></g></g><g style="fill:#324b3e;fill-opacity:1;"><g transform="translate(165.119589, 181.331337)"><path style="stroke:none" d="M 0.46875 -7.890625 L 0.46875 -8.90625 L 2.78125 -8.90625 L 2.78125 0 L 1.65625 0 L 1.65625 -7.890625 Z M 0.46875 -7.890625 "/></g></g><g style="fill:#324b3e;fill-opacity:1;"><g transform="translate(170.042099, 181.331337)"><path style="stroke:none" d="M 0.5 -1.984375 L 0.5 -2.828125 L 4.8125 -8.828125 L 6.171875 -8.828125 L 6.171875 -2.953125 L 7.390625 -2.953125 L 7.390625 -1.984375 L 6.171875 -1.984375 L 6.171875 0 L 5.046875 0 L 5.046875 -1.984375 Z M 5.109375 -7.65625 L 1.78125 -2.953125 L 5.109375 -2.953125 Z M 5.109375 -7.65625 "/></g></g><g style="fill:#324b3e;fill-opacity:1;"><g transform="translate(178.776379, 181.331337)"><path style="stroke:none" d="M 0.53125 -4.296875 C 0.53125 -5.140625 0.71875 -5.894531 1.09375 -6.5625 C 1.476562 -7.226562 1.992188 -7.75 2.640625 -8.125 C 3.296875 -8.507812 4.019531 -8.703125 4.8125 -8.703125 C 5.75 -8.703125 6.566406 -8.472656 7.265625 -8.015625 C 7.972656 -7.566406 8.484375 -6.929688 8.796875 -6.109375 L 7.453125 -6.109375 C 7.210938 -6.617188 6.867188 -7.015625 6.421875 -7.296875 C 5.972656 -7.578125 5.4375 -7.71875 4.8125 -7.71875 C 4.21875 -7.71875 3.679688 -7.578125 3.203125 -7.296875 C 2.722656 -7.015625 2.347656 -6.617188 2.078125 -6.109375 C 1.804688 -5.597656 1.671875 -4.992188 1.671875 -4.296875 C 1.671875 -3.617188 1.804688 -3.019531 2.078125 -2.5 C 2.347656 -1.988281 2.722656 -1.59375 3.203125 -1.3125 C 3.679688 -1.039062 4.21875 -0.90625 4.8125 -0.90625 C 5.4375 -0.90625 5.972656 -1.039062 6.421875 -1.3125 C 6.867188 -1.582031 7.210938 -1.976562 7.453125 -2.5 L 8.796875 -2.5 C 8.484375 -1.675781 7.972656 -1.039062 7.265625 -0.59375 C 6.566406 -0.144531 5.75 0.078125 4.8125 0.078125 C 4.019531 0.078125 3.296875 -0.109375 2.640625 -0.484375 C 1.992188 -0.859375 1.476562 -1.378906 1.09375 -2.046875 C 0.71875 -2.710938 0.53125 -3.460938 0.53125 -4.296875 Z M 0.53125 -4.296875 "/></g></g><g style="fill:#324b3e;fill-opacity:1;"><g transform="translate(189.274682, 181.331337)"><path style="stroke:none" d=""/></g></g><g style="fill:#324b3e;fill-opacity:1;"><g transform="translate(193.543395, 181.331337)"><path style="stroke:none" d="M 4.84375 0.09375 C 4.050781 0.09375 3.320312 -0.09375 2.65625 -0.46875 C 2 -0.84375 1.476562 -1.363281 1.09375 -2.03125 C 0.71875 -2.707031 0.53125 -3.460938 0.53125 -4.296875 C 0.53125 -5.140625 0.71875 -5.894531 1.09375 -6.5625 C 1.476562 -7.226562 2 -7.75 2.65625 -8.125 C 3.320312 -8.5 4.050781 -8.6875 4.84375 -8.6875 C 5.644531 -8.6875 6.375 -8.5 7.03125 -8.125 C 7.695312 -7.75 8.21875 -7.226562 8.59375 -6.5625 C 8.96875 -5.90625 9.15625 -5.148438 9.15625 -4.296875 C 9.15625 -3.453125 8.96875 -2.695312 8.59375 -2.03125 C 8.21875 -1.363281 7.695312 -0.84375 7.03125 -0.46875 C 6.375 -0.09375 5.644531 0.09375 4.84375 0.09375 Z M 4.84375 -0.890625 C 5.445312 -0.890625 5.988281 -1.023438 6.46875 -1.296875 C 6.945312 -1.578125 7.320312 -1.976562 7.59375 -2.5 C 7.875 -3.019531 8.015625 -3.617188 8.015625 -4.296875 C 8.015625 -4.992188 7.875 -5.597656 7.59375 -6.109375 C 7.320312 -6.617188 6.945312 -7.015625 6.46875 -7.296875 C 5.988281 -7.578125 5.445312 -7.71875 4.84375 -7.71875 C 4.238281 -7.71875 3.695312 -7.578125 3.21875 -7.296875 C 2.738281 -7.015625 2.359375 -6.617188 2.078125 -6.109375 C 1.804688 -5.597656 1.671875 -4.992188 1.671875 -4.296875 C 1.671875 -3.617188 1.804688 -3.019531 2.078125 -2.5 C 2.359375 -1.976562 2.738281 -1.578125 3.21875 -1.296875 C 3.695312 -1.023438 4.238281 -0.890625 4.84375 -0.890625 Z M 4.875 -10.1875 L 3.15625 -9.140625 L 3.15625 -10.03125 L 4.875 -11.046875 L 6.578125 -10.03125 L 6.578125 -9.140625 Z M 4.875 -10.1875 "/></g></g><g style="fill:#324b3e;fill-opacity:1;"><g transform="translate(204.214401, 181.331337)"><path style="stroke:none" d=""/></g></g><g style="fill:#324b3e;fill-opacity:1;"><g transform="translate(208.483114, 181.331337)"><path style="stroke:none" d="M 0.53125 -4.296875 C 0.53125 -5.140625 0.71875 -5.894531 1.09375 -6.5625 C 1.476562 -7.226562 1.992188 -7.75 2.640625 -8.125 C 3.296875 -8.507812 4.019531 -8.703125 4.8125 -8.703125 C 5.75 -8.703125 6.566406 -8.472656 7.265625 -8.015625 C 7.972656 -7.566406 8.484375 -6.929688 8.796875 -6.109375 L 7.453125 -6.109375 C 7.210938 -6.617188 6.867188 -7.015625 6.421875 -7.296875 C 5.972656 -7.578125 5.4375 -7.71875 4.8125 -7.71875 C 4.21875 -7.71875 3.679688 -7.578125 3.203125 -7.296875 C 2.722656 -7.015625 2.347656 -6.617188 2.078125 -6.109375 C 1.804688 -5.597656 1.671875 -4.992188 1.671875 -4.296875 C 1.671875 -3.617188 1.804688 -3.019531 2.078125 -2.5 C 2.347656 -1.988281 2.722656 -1.59375 3.203125 -1.3125 C 3.679688 -1.039062 4.21875 -0.90625 4.8125 -0.90625 C 5.4375 -0.90625 5.972656 -1.039062 6.421875 -1.3125 C 6.867188 -1.582031 7.210938 -1.976562 7.453125 -2.5 L 8.796875 -2.5 C 8.484375 -1.675781 7.972656 -1.039062 7.265625 -0.59375 C 6.566406 -0.144531 5.75 0.078125 4.8125 0.078125 C 4.019531 0.078125 3.296875 -0.109375 2.640625 -0.484375 C 1.992188 -0.859375 1.476562 -1.378906 1.09375 -2.046875 C 0.71875 -2.710938 0.53125 -3.460938 0.53125 -4.296875 Z M 0.53125 -4.296875 "/></g></g><g style="fill:#324b3e;fill-opacity:1;"><g transform="translate(218.981417, 181.331337)"><path style="stroke:none" d="M 6.03125 -1.90625 L 2.28125 -1.90625 L 1.59375 0 L 0.40625 0 L 3.515625 -8.546875 L 4.8125 -8.546875 L 7.90625 0 L 6.71875 0 Z M 5.703125 -2.828125 L 4.15625 -7.15625 L 2.59375 -2.828125 Z M 5.359375 -10.453125 L 2.734375 -9.046875 L 2.734375 -9.875 L 5.359375 -11.421875 Z M 5.359375 -10.453125 "/></g></g><g style="fill:#324b3e;fill-opacity:1;"><g transform="translate(228.270815, 181.331337)"><path style="stroke:none" d="M 0.53125 -4.296875 C 0.53125 -5.140625 0.71875 -5.894531 1.09375 -6.5625 C 1.476562 -7.226562 1.992188 -7.75 2.640625 -8.125 C 3.296875 -8.507812 4.019531 -8.703125 4.8125 -8.703125 C 5.75 -8.703125 6.566406 -8.472656 7.265625 -8.015625 C 7.972656 -7.566406 8.484375 -6.929688 8.796875 -6.109375 L 7.453125 -6.109375 C 7.210938 -6.617188 6.867188 -7.015625 6.421875 -7.296875 C 5.972656 -7.578125 5.4375 -7.71875 4.8125 -7.71875 C 4.21875 -7.71875 3.679688 -7.578125 3.203125 -7.296875 C 2.722656 -7.015625 2.347656 -6.617188 2.078125 -6.109375 C 1.804688 -5.597656 1.671875 -4.992188 1.671875 -4.296875 C 1.671875 -3.617188 1.804688 -3.019531 2.078125 -2.5 C 2.347656 -1.988281 2.722656 -1.59375 3.203125 -1.3125 C 3.679688 -1.039062 4.21875 -0.90625 4.8125 -0.90625 C 5.4375 -0.90625 5.972656 -1.039062 6.421875 -1.3125 C 6.867188 -1.582031 7.210938 -1.976562 7.453125 -2.5 L 8.796875 -2.5 C 8.484375 -1.675781 7.972656 -1.039062 7.265625 -0.59375 C 6.566406 -0.144531 5.75 0.078125 4.8125 0.078125 C 4.019531 0.078125 3.296875 -0.109375 2.640625 -0.484375 C 1.992188 -0.859375 1.476562 -1.378906 1.09375 -2.046875 C 0.71875 -2.710938 0.53125 -3.460938 0.53125 -4.296875 Z M 0.53125 -4.296875 "/></g></g><g style="fill:#324b3e;fill-opacity:1;"><g transform="translate(238.769118, 181.331337)"><path style="stroke:none" d="M 7.5625 -8.59375 L 7.5625 0 L 6.453125 0 L 6.453125 -3.890625 L 2.078125 -3.890625 L 2.078125 0 L 0.953125 0 L 0.953125 -8.59375 L 2.078125 -8.59375 L 2.078125 -4.8125 L 6.453125 -4.8125 L 6.453125 -8.59375 Z M 7.5625 -8.59375 "/></g></g><g style="fill:#324b3e;fill-opacity:1;"><g transform="translate(248.28056, 181.331337)"><path style="stroke:none" d="M 2.109375 -1.546875 L 0.734375 1.765625 L -0.03125 1.765625 L 0.875 -1.546875 Z M 2.109375 -1.546875 "/></g></g><g style="fill:#324b3e;fill-opacity:1;"><g transform="translate(251.698097, 181.331337)"><path style="stroke:none" d=""/></g></g><g style="fill:#324b3e;fill-opacity:1;"><g transform="translate(255.96681, 181.331337)"><path style="stroke:none" d="M 3.859375 -8.59375 C 4.785156 -8.59375 5.59375 -8.414062 6.28125 -8.0625 C 6.96875 -7.71875 7.492188 -7.21875 7.859375 -6.5625 C 8.222656 -5.914062 8.40625 -5.15625 8.40625 -4.28125 C 8.40625 -3.394531 8.222656 -2.628906 7.859375 -1.984375 C 7.492188 -1.335938 6.96875 -0.84375 6.28125 -0.5 C 5.59375 -0.164062 4.785156 0 3.859375 0 L 1.1875 0 L 1.1875 -3.765625 L 0.109375 -3.765625 L 0.109375 -4.796875 L 1.1875 -4.796875 L 1.1875 -8.59375 Z M 3.859375 -0.859375 C 4.960938 -0.859375 5.804688 -1.160156 6.390625 -1.765625 C 6.972656 -2.367188 7.265625 -3.207031 7.265625 -4.28125 C 7.265625 -5.34375 6.972656 -6.175781 6.390625 -6.78125 C 5.804688 -7.382812 4.960938 -7.6875 3.859375 -7.6875 L 2.3125 -7.6875 L 2.3125 -4.796875 L 4.671875 -4.796875 L 4.671875 -3.765625 L 2.3125 -3.765625 L 2.3125 -0.859375 Z M 3.859375 -0.859375 "/></g></g><g style="fill:#324b3e;fill-opacity:1;"><g transform="translate(265.88533, 181.331337)"><path style="stroke:none" d="M 7.890625 -8.796875 L 7.890625 -7.609375 C 8.296875 -7.660156 8.554688 -7.84375 8.671875 -8.15625 C 8.796875 -8.476562 8.859375 -8.882812 8.859375 -9.375 L 10 -9.375 L 10.078125 -9.234375 C 10.015625 -8.847656 9.90625 -8.488281 9.75 -8.15625 C 9.601562 -7.820312 9.378906 -7.539062 9.078125 -7.3125 C 8.785156 -7.09375 8.390625 -6.9375 7.890625 -6.84375 L 7.890625 -3.109375 C 7.890625 -2.492188 7.773438 -1.941406 7.546875 -1.453125 C 7.316406 -0.972656 6.953125 -0.585938 6.453125 -0.296875 C 5.960938 -0.015625 5.328125 0.125 4.546875 0.125 C 3.421875 0.125 2.566406 -0.171875 1.984375 -0.765625 C 1.398438 -1.367188 1.109375 -2.15625 1.109375 -3.125 L 1.109375 -8.796875 L 2.21875 -8.796875 L 2.21875 -3.078125 C 2.21875 -2.367188 2.410156 -1.816406 2.796875 -1.421875 C 3.191406 -1.035156 3.785156 -0.84375 4.578125 -0.84375 C 5.109375 -0.84375 5.535156 -0.9375 5.859375 -1.125 C 6.179688 -1.320312 6.414062 -1.585938 6.5625 -1.921875 C 6.71875 -2.265625 6.796875 -2.65625 6.796875 -3.09375 L 6.796875 -8.796875 Z M 6.25 -11.625 L 6.25 -11.5 C 6.144531 -11.351562 5.988281 -11.160156 5.78125 -10.921875 C 5.582031 -10.691406 5.363281 -10.457031 5.125 -10.21875 C 4.894531 -9.988281 4.679688 -9.800781 4.484375 -9.65625 L 3.78125 -9.65625 L 3.78125 -9.8125 C 3.894531 -9.957031 4.023438 -10.140625 4.171875 -10.359375 C 4.316406 -10.578125 4.457031 -10.796875 4.59375 -11.015625 C 4.738281 -11.242188 4.859375 -11.445312 4.953125 -11.625 Z M 6.25 -11.625 "/></g></g><g style="fill:#324b3e;fill-opacity:1;"><g transform="translate(276.482322, 181.331337)"><path style="stroke:none" d="M 0.53125 -4.296875 C 0.53125 -5.140625 0.71875 -5.894531 1.09375 -6.5625 C 1.476562 -7.226562 1.992188 -7.75 2.640625 -8.125 C 3.296875 -8.507812 4.019531 -8.703125 4.8125 -8.703125 C 5.75 -8.703125 6.566406 -8.472656 7.265625 -8.015625 C 7.972656 -7.566406 8.484375 -6.929688 8.796875 -6.109375 L 7.453125 -6.109375 C 7.210938 -6.617188 6.867188 -7.015625 6.421875 -7.296875 C 5.972656 -7.578125 5.4375 -7.71875 4.8125 -7.71875 C 4.21875 -7.71875 3.679688 -7.578125 3.203125 -7.296875 C 2.722656 -7.015625 2.347656 -6.617188 2.078125 -6.109375 C 1.804688 -5.597656 1.671875 -4.992188 1.671875 -4.296875 C 1.671875 -3.617188 1.804688 -3.019531 2.078125 -2.5 C 2.347656 -1.988281 2.722656 -1.59375 3.203125 -1.3125 C 3.679688 -1.039062 4.21875 -0.90625 4.8125 -0.90625 C 5.4375 -0.90625 5.972656 -1.039062 6.421875 -1.3125 C 6.867188 -1.582031 7.210938 -1.976562 7.453125 -2.5 L 8.796875 -2.5 C 8.484375 -1.675781 7.972656 -1.039062 7.265625 -0.59375 C 6.566406 -0.144531 5.75 0.078125 4.8125 0.078125 C 4.019531 0.078125 3.296875 -0.109375 2.640625 -0.484375 C 1.992188 -0.859375 1.476562 -1.378906 1.09375 -2.046875 C 0.71875 -2.710938 0.53125 -3.460938 0.53125 -4.296875 Z M 0.53125 -4.296875 "/></g></g><g style="fill:#324b3e;fill-opacity:1;"><g transform="translate(286.980625, 181.331337)"><path style="stroke:none" d=""/></g></g><g style="fill:#324b3e;fill-opacity:1;"><g transform="translate(291.249338, 181.331337)"><path style="stroke:none" d="M 7.453125 -6.109375 C 7.210938 -6.609375 6.867188 -6.992188 6.421875 -7.265625 C 5.972656 -7.546875 5.445312 -7.6875 4.84375 -7.6875 C 4.238281 -7.6875 3.695312 -7.546875 3.21875 -7.265625 C 2.738281 -6.992188 2.359375 -6.597656 2.078125 -6.078125 C 1.804688 -5.566406 1.671875 -4.972656 1.671875 -4.296875 C 1.671875 -3.628906 1.804688 -3.039062 2.078125 -2.53125 C 2.359375 -2.019531 2.738281 -1.625 3.21875 -1.34375 C 3.695312 -1.070312 4.238281 -0.9375 4.84375 -0.9375 C 5.6875 -0.9375 6.378906 -1.1875 6.921875 -1.6875 C 7.460938 -2.1875 7.773438 -2.863281 7.859375 -3.71875 L 4.4375 -3.71875 L 4.4375 -4.640625 L 9.0625 -4.640625 L 9.0625 -3.765625 C 9 -3.066406 8.773438 -2.421875 8.390625 -1.828125 C 8.015625 -1.242188 7.519531 -0.78125 6.90625 -0.4375 C 6.289062 -0.09375 5.601562 0.078125 4.84375 0.078125 C 4.050781 0.078125 3.320312 -0.109375 2.65625 -0.484375 C 2 -0.859375 1.476562 -1.378906 1.09375 -2.046875 C 0.71875 -2.710938 0.53125 -3.460938 0.53125 -4.296875 C 0.53125 -5.140625 0.71875 -5.894531 1.09375 -6.5625 C 1.476562 -7.226562 2 -7.75 2.65625 -8.125 C 3.320312 -8.5 4.050781 -8.6875 4.84375 -8.6875 C 5.757812 -8.6875 6.566406 -8.457031 7.265625 -8 C 7.972656 -7.550781 8.484375 -6.921875 8.796875 -6.109375 Z M 7.453125 -6.109375 "/></g></g><g style="fill:#324b3e;fill-opacity:1;"><g transform="translate(301.821655, 181.331337)"><path style="stroke:none" d="M 2.078125 -8.59375 L 2.078125 0 L 0.953125 0 L 0.953125 -8.59375 Z M 2.078125 -8.59375 "/></g></g><g style="fill:#324b3e;fill-opacity:1;"><g transform="translate(305.831317, 181.331337)"><path style="stroke:none" d="M 6.03125 -1.90625 L 2.28125 -1.90625 L 1.59375 0 L 0.40625 0 L 3.515625 -8.546875 L 4.8125 -8.546875 L 7.90625 0 L 6.71875 0 Z M 5.703125 -2.828125 L 4.15625 -7.15625 L 2.59375 -2.828125 Z M 5.703125 -2.828125 "/></g></g><g style="fill:#324b3e;fill-opacity:1;"><g transform="translate(315.120716, 181.331337)"><path style="stroke:none" d="M 7.703125 0 L 6.578125 0 L 2.078125 -6.84375 L 2.078125 0 L 0.953125 0 L 0.953125 -8.609375 L 2.078125 -8.609375 L 6.578125 -1.78125 L 6.578125 -8.609375 L 7.703125 -8.609375 Z M 7.703125 0 "/></g></g><g style="fill:#324b3e;fill-opacity:1;"><g transform="translate(324.767854, 181.331337)"><path style="stroke:none" d="M 7.453125 -6.109375 C 7.210938 -6.609375 6.867188 -6.992188 6.421875 -7.265625 C 5.972656 -7.546875 5.445312 -7.6875 4.84375 -7.6875 C 4.238281 -7.6875 3.695312 -7.546875 3.21875 -7.265625 C 2.738281 -6.992188 2.359375 -6.597656 2.078125 -6.078125 C 1.804688 -5.566406 1.671875 -4.972656 1.671875 -4.296875 C 1.671875 -3.628906 1.804688 -3.039062 2.078125 -2.53125 C 2.359375 -2.019531 2.738281 -1.625 3.21875 -1.34375 C 3.695312 -1.070312 4.238281 -0.9375 4.84375 -0.9375 C 5.6875 -0.9375 6.378906 -1.1875 6.921875 -1.6875 C 7.460938 -2.1875 7.773438 -2.863281 7.859375 -3.71875 L 4.4375 -3.71875 L 4.4375 -4.640625 L 9.0625 -4.640625 L 9.0625 -3.765625 C 9 -3.066406 8.773438 -2.421875 8.390625 -1.828125 C 8.015625 -1.242188 7.519531 -0.78125 6.90625 -0.4375 C 6.289062 -0.09375 5.601562 0.078125 4.84375 0.078125 C 4.050781 0.078125 3.320312 -0.109375 2.65625 -0.484375 C 2 -0.859375 1.476562 -1.378906 1.09375 -2.046875 C 0.71875 -2.710938 0.53125 -3.460938 0.53125 -4.296875 C 0.53125 -5.140625 0.71875 -5.894531 1.09375 -6.5625 C 1.476562 -7.226562 2 -7.75 2.65625 -8.125 C 3.320312 -8.5 4.050781 -8.6875 4.84375 -8.6875 C 5.757812 -8.6875 6.566406 -8.457031 7.265625 -8 C 7.972656 -7.550781 8.484375 -6.921875 8.796875 -6.109375 Z M 7.453125 -6.109375 "/></g></g><g style="fill:#324b3e;fill-opacity:1;"><g transform="translate(335.340171, 181.331337)"><path style="stroke:none" d="M 2.109375 -1.546875 L 0.734375 1.765625 L -0.03125 1.765625 L 0.875 -1.546875 Z M 2.109375 -1.546875 "/></g></g><g style="fill:#324b3e;fill-opacity:1;"><g transform="translate(338.757708, 181.331337)"><path style="stroke:none" d=""/></g></g><g style="fill:#324b3e;fill-opacity:1;"><g transform="translate(343.026421, 181.331337)"><path style="stroke:none" d="M 2.078125 -0.90625 L 5.078125 -0.90625 L 5.078125 0 L 0.953125 0 L 0.953125 -8.59375 L 2.078125 -8.59375 Z M 2.078125 -0.90625 "/></g></g><g style="fill:#324b3e;fill-opacity:1;"><g transform="translate(349.33055, 181.331337)"><path style="stroke:none" d="M 4.84375 0.09375 C 4.050781 0.09375 3.320312 -0.09375 2.65625 -0.46875 C 2 -0.84375 1.476562 -1.363281 1.09375 -2.03125 C 0.71875 -2.707031 0.53125 -3.460938 0.53125 -4.296875 C 0.53125 -5.140625 0.71875 -5.894531 1.09375 -6.5625 C 1.476562 -7.226562 2 -7.75 2.65625 -8.125 C 3.320312 -8.5 4.050781 -8.6875 4.84375 -8.6875 C 5.644531 -8.6875 6.375 -8.5 7.03125 -8.125 C 7.695312 -7.75 8.21875 -7.226562 8.59375 -6.5625 C 8.96875 -5.90625 9.15625 -5.148438 9.15625 -4.296875 C 9.15625 -3.453125 8.96875 -2.695312 8.59375 -2.03125 C 8.21875 -1.363281 7.695312 -0.84375 7.03125 -0.46875 C 6.375 -0.09375 5.644531 0.09375 4.84375 0.09375 Z M 4.84375 -0.890625 C 5.445312 -0.890625 5.988281 -1.023438 6.46875 -1.296875 C 6.945312 -1.578125 7.320312 -1.976562 7.59375 -2.5 C 7.875 -3.019531 8.015625 -3.617188 8.015625 -4.296875 C 8.015625 -4.992188 7.875 -5.597656 7.59375 -6.109375 C 7.320312 -6.617188 6.945312 -7.015625 6.46875 -7.296875 C 5.988281 -7.578125 5.445312 -7.71875 4.84375 -7.71875 C 4.238281 -7.71875 3.695312 -7.578125 3.21875 -7.296875 C 2.738281 -7.015625 2.359375 -6.617188 2.078125 -6.109375 C 1.804688 -5.597656 1.671875 -4.992188 1.671875 -4.296875 C 1.671875 -3.617188 1.804688 -3.019531 2.078125 -2.5 C 2.359375 -1.976562 2.738281 -1.578125 3.21875 -1.296875 C 3.695312 -1.023438 4.238281 -0.890625 4.84375 -0.890625 Z M 4.84375 -0.890625 "/></g></g><g style="fill:#324b3e;fill-opacity:1;"><g transform="translate(360.001557, 181.331337)"><path style="stroke:none" d="M 7.703125 0 L 6.578125 0 L 2.078125 -6.84375 L 2.078125 0 L 0.953125 0 L 0.953125 -8.609375 L 2.078125 -8.609375 L 6.578125 -1.78125 L 6.578125 -8.609375 L 7.703125 -8.609375 Z M 7.703125 0 "/></g></g><g style="fill:#324b3e;fill-opacity:1;"><g transform="translate(369.648695, 181.331337)"><path style="stroke:none" d="M 7.453125 -6.109375 C 7.210938 -6.609375 6.867188 -6.992188 6.421875 -7.265625 C 5.972656 -7.546875 5.445312 -7.6875 4.84375 -7.6875 C 4.238281 -7.6875 3.695312 -7.546875 3.21875 -7.265625 C 2.738281 -6.992188 2.359375 -6.597656 2.078125 -6.078125 C 1.804688 -5.566406 1.671875 -4.972656 1.671875 -4.296875 C 1.671875 -3.628906 1.804688 -3.039062 2.078125 -2.53125 C 2.359375 -2.019531 2.738281 -1.625 3.21875 -1.34375 C 3.695312 -1.070312 4.238281 -0.9375 4.84375 -0.9375 C 5.6875 -0.9375 6.378906 -1.1875 6.921875 -1.6875 C 7.460938 -2.1875 7.773438 -2.863281 7.859375 -3.71875 L 4.4375 -3.71875 L 4.4375 -4.640625 L 9.0625 -4.640625 L 9.0625 -3.765625 C 9 -3.066406 8.773438 -2.421875 8.390625 -1.828125 C 8.015625 -1.242188 7.519531 -0.78125 6.90625 -0.4375 C 6.289062 -0.09375 5.601562 0.078125 4.84375 0.078125 C 4.050781 0.078125 3.320312 -0.109375 2.65625 -0.484375 C 2 -0.859375 1.476562 -1.378906 1.09375 -2.046875 C 0.71875 -2.710938 0.53125 -3.460938 0.53125 -4.296875 C 0.53125 -5.140625 0.71875 -5.894531 1.09375 -6.5625 C 1.476562 -7.226562 2 -7.75 2.65625 -8.125 C 3.320312 -8.5 4.050781 -8.6875 4.84375 -8.6875 C 5.757812 -8.6875 6.566406 -8.457031 7.265625 -8 C 7.972656 -7.550781 8.484375 -6.921875 8.796875 -6.109375 Z M 7.453125 -6.109375 "/></g></g><g style="fill:#324b3e;fill-opacity:1;"><g transform="translate(380.221012, 181.331337)"><path style="stroke:none" d=""/></g></g><g style="fill:#324b3e;fill-opacity:1;"><g transform="translate(384.489725, 181.331337)"><path style="stroke:none" d="M 5.25 -4.421875 C 5.5625 -4.378906 5.847656 -4.253906 6.109375 -4.046875 C 6.367188 -3.835938 6.570312 -3.582031 6.71875 -3.28125 C 6.875 -2.976562 6.953125 -2.65625 6.953125 -2.3125 C 6.953125 -1.875 6.835938 -1.476562 6.609375 -1.125 C 6.390625 -0.78125 6.066406 -0.503906 5.640625 -0.296875 C 5.222656 -0.0976562 4.726562 0 4.15625 0 L 0.953125 0 L 0.953125 -8.59375 L 4.03125 -8.59375 C 4.613281 -8.59375 5.109375 -8.492188 5.515625 -8.296875 C 5.929688 -8.109375 6.238281 -7.847656 6.4375 -7.515625 C 6.644531 -7.191406 6.75 -6.820312 6.75 -6.40625 C 6.75 -5.894531 6.613281 -5.472656 6.34375 -5.140625 C 6.070312 -4.804688 5.707031 -4.566406 5.25 -4.421875 Z M 2.078125 -4.875 L 3.953125 -4.875 C 4.484375 -4.875 4.890625 -5 5.171875 -5.25 C 5.460938 -5.5 5.609375 -5.84375 5.609375 -6.28125 C 5.609375 -6.707031 5.460938 -7.046875 5.171875 -7.296875 C 4.890625 -7.546875 4.476562 -7.671875 3.9375 -7.671875 L 2.078125 -7.671875 Z M 4.0625 -0.921875 C 4.613281 -0.921875 5.046875 -1.050781 5.359375 -1.3125 C 5.671875 -1.582031 5.828125 -1.953125 5.828125 -2.421875 C 5.828125 -2.890625 5.660156 -3.257812 5.328125 -3.53125 C 5.003906 -3.8125 4.566406 -3.953125 4.015625 -3.953125 L 2.078125 -3.953125 L 2.078125 -0.921875 Z M 4.0625 -0.921875 "/></g></g><g style="fill:#324b3e;fill-opacity:1;"><g transform="translate(393.026626, 181.331337)"><path style="stroke:none" d="M 2.078125 -8.59375 L 2.078125 0 L 0.953125 0 L 0.953125 -8.59375 Z M 2.078125 -8.59375 "/></g></g><g style="fill:#324b3e;fill-opacity:1;"><g transform="translate(397.036312, 181.331337)"><path style="stroke:none" d="M 2.078125 -7.6875 L 2.078125 -4.8125 L 5.203125 -4.8125 L 5.203125 -3.890625 L 2.078125 -3.890625 L 2.078125 -0.921875 L 5.578125 -0.921875 L 5.578125 0 L 0.953125 0 L 0.953125 -8.609375 L 5.578125 -8.609375 L 5.578125 -7.6875 Z M 3.140625 -10.1875 L 1.421875 -9.140625 L 1.421875 -10.03125 L 3.140625 -11.046875 L 4.84375 -10.03125 L 4.84375 -9.140625 Z M 3.140625 -10.1875 "/></g></g><g style="fill:#324b3e;fill-opacity:1;"><g transform="translate(404.339633, 181.331337)"><path style="stroke:none" d="M 7.703125 0 L 6.578125 0 L 2.078125 -6.84375 L 2.078125 0 L 0.953125 0 L 0.953125 -8.609375 L 2.078125 -8.609375 L 6.578125 -1.78125 L 6.578125 -8.609375 L 7.703125 -8.609375 Z M 7.703125 0 "/></g></g><g style="fill:#324b3e;fill-opacity:1;"><g transform="translate(413.986772, 181.331337)"><path style="stroke:none" d="M 2.109375 -1.546875 L 0.734375 1.765625 L -0.03125 1.765625 L 0.875 -1.546875 Z M 2.109375 -1.546875 "/></g></g><g style="fill:#324b3e;fill-opacity:1;"><g transform="translate(417.404297, 181.331337)"><path style="stroke:none" d=""/></g></g><g style="fill:#324b3e;fill-opacity:1;"><g transform="translate(421.67301, 181.331337)"><path style="stroke:none" d="M 7.5625 -8.59375 L 7.5625 0 L 6.453125 0 L 6.453125 -3.890625 L 2.078125 -3.890625 L 2.078125 0 L 0.953125 0 L 0.953125 -8.59375 L 2.078125 -8.59375 L 2.078125 -4.8125 L 6.453125 -4.8125 L 6.453125 -8.59375 Z M 7.5625 -8.59375 "/></g></g><g style="fill:#324b3e;fill-opacity:1;"><g transform="translate(431.184463, 181.331337)"><path style="stroke:none" d="M 6.03125 -1.90625 L 2.28125 -1.90625 L 1.59375 0 L 0.40625 0 L 3.515625 -8.546875 L 4.8125 -8.546875 L 7.90625 0 L 6.71875 0 Z M 5.703125 -2.828125 L 4.15625 -7.15625 L 2.59375 -2.828125 Z M 5.359375 -9.875 L 5.359375 -9.046875 L 2.734375 -10.453125 L 2.734375 -11.421875 Z M 5.359375 -9.875 "/></g></g><g style="fill:#324b3e;fill-opacity:1;"><g transform="translate(440.473851, 181.331337)"><path style="stroke:none" d=""/></g></g><g style="fill:#324b3e;fill-opacity:1;"><g transform="translate(444.742564, 181.331337)"><path style="stroke:none" d="M 7.703125 0 L 6.578125 0 L 2.078125 -6.84375 L 2.078125 0 L 0.953125 0 L 0.953125 -8.609375 L 2.078125 -8.609375 L 6.578125 -1.78125 L 6.578125 -8.609375 L 7.703125 -8.609375 Z M 7.703125 0 "/></g></g><g style="fill:#324b3e;fill-opacity:1;"><g transform="translate(454.389702, 181.331337)"><path style="stroke:none" d="M 4.84375 0.09375 C 4.050781 0.09375 3.320312 -0.09375 2.65625 -0.46875 C 2 -0.84375 1.476562 -1.363281 1.09375 -2.03125 C 0.71875 -2.707031 0.53125 -3.460938 0.53125 -4.296875 C 0.53125 -5.140625 0.71875 -5.894531 1.09375 -6.5625 C 1.476562 -7.226562 2 -7.75 2.65625 -8.125 C 3.320312 -8.5 4.050781 -8.6875 4.84375 -8.6875 C 5.644531 -8.6875 6.375 -8.5 7.03125 -8.125 C 7.695312 -7.75 8.21875 -7.226562 8.59375 -6.5625 C 8.96875 -5.90625 9.15625 -5.148438 9.15625 -4.296875 C 9.15625 -3.453125 8.96875 -2.695312 8.59375 -2.03125 C 8.21875 -1.363281 7.695312 -0.84375 7.03125 -0.46875 C 6.375 -0.09375 5.644531 0.09375 4.84375 0.09375 Z M 4.84375 -0.890625 C 5.445312 -0.890625 5.988281 -1.023438 6.46875 -1.296875 C 6.945312 -1.578125 7.320312 -1.976562 7.59375 -2.5 C 7.875 -3.019531 8.015625 -3.617188 8.015625 -4.296875 C 8.015625 -4.992188 7.875 -5.597656 7.59375 -6.109375 C 7.320312 -6.617188 6.945312 -7.015625 6.46875 -7.296875 C 5.988281 -7.578125 5.445312 -7.71875 4.84375 -7.71875 C 4.238281 -7.71875 3.695312 -7.578125 3.21875 -7.296875 C 2.738281 -7.015625 2.359375 -6.617188 2.078125 -6.109375 C 1.804688 -5.597656 1.671875 -4.992188 1.671875 -4.296875 C 1.671875 -3.617188 1.804688 -3.019531 2.078125 -2.5 C 2.359375 -1.976562 2.738281 -1.578125 3.21875 -1.296875 C 3.695312 -1.023438 4.238281 -0.890625 4.84375 -0.890625 Z M 4.875 -10.1875 L 3.15625 -9.140625 L 3.15625 -10.03125 L 4.875 -11.046875 L 6.578125 -10.03125 L 6.578125 -9.140625 Z M 4.875 -10.1875 "/></g></g><g style="fill:#324b3e;fill-opacity:1;"><g transform="translate(465.060697, 181.331337)"><path style="stroke:none" d="M 2.078125 -8.59375 L 2.078125 0 L 0.953125 0 L 0.953125 -8.59375 Z M 2.078125 -8.59375 "/></g></g><g style="fill:#324b3e;fill-opacity:1;"><g transform="translate(469.076501, 181.331337)"><path style="stroke:none" d=""/></g></g><g style="fill:#324b3e;fill-opacity:1;"><g transform="translate(458.310389, 184.040577)"><path style="stroke:none" d="M 1.09375 0.0625 C 0.914062 0.0625 0.765625 0 0.640625 -0.125 C 0.515625 -0.25 0.453125 -0.398438 0.453125 -0.578125 C 0.453125 -0.753906 0.515625 -0.90625 0.640625 -1.03125 C 0.765625 -1.15625 0.914062 -1.21875 1.09375 -1.21875 C 1.269531 -1.21875 1.414062 -1.15625 1.53125 -1.03125 C 1.65625 -0.90625 1.71875 -0.753906 1.71875 -0.578125 C 1.71875 -0.398438 1.65625 -0.25 1.53125 -0.125 C 1.414062 0 1.269531 0.0625 1.09375 0.0625 Z M 1.09375 0.0625 "/></g></g></g></svg>